<svg width="235" height="180" viewBox="0 0 235 180" fill="none" xmlns="http://www.w3.org/2000/svg">
<path fill-rule="evenodd" clip-rule="evenodd" d="M31.7957 126.834C28.1935 123.264 23.7188 121.479 18.3713 121.479C15.0733 121.479 12.0074 122.304 9.17368 123.953C6.33992 125.586 4.09854 127.851 2.44951 130.749C0.816506 133.647 0 136.793 0 140.187C0 145.278 1.80113 149.617 5.40335 153.203C9.00559 156.789 13.4243 158.582 18.6595 158.582C23.8308 158.582 28.2095 156.781 31.7957 153.179C35.3979 149.576 37.199 145.19 37.199 140.018C37.199 134.799 35.3979 130.405 31.7957 126.834ZM11.1189 126.978C13.4563 125.618 15.9299 124.937 18.5395 124.937C21.1972 124.937 23.7107 125.618 26.0801 126.978C28.4497 128.339 30.2828 130.156 31.5796 132.43C32.8924 134.687 33.5489 137.217 33.5489 140.018C33.5489 142.836 32.8924 145.398 31.5796 147.703C30.2828 150.009 28.4656 151.826 26.1282 153.155C23.8068 154.484 21.2771 155.148 18.5395 155.148C14.4409 155.148 10.9348 153.707 8.02097 150.825C5.12318 147.927 3.67427 144.381 3.67427 140.187C3.67427 137.353 4.33069 134.783 5.64351 132.478C6.95631 130.172 8.78144 128.339 11.1189 126.978ZM51.5119 122.368H44.4757V157.693H48.0058V141.267H50.0231L62.7029 157.693H67.0737L54.3698 141.267C57.3316 141.251 59.653 140.875 61.3341 140.139C63.015 139.386 64.3038 138.281 65.2005 136.825C66.1129 135.368 66.5692 133.679 66.5692 131.757C66.5692 129.452 65.9129 127.515 64.6 125.946C63.2872 124.361 61.5822 123.328 59.4849 122.848C58.092 122.528 55.4344 122.368 51.5119 122.368ZM48.0058 137.833V125.826H54.2256C56.6431 125.826 58.3723 126.034 59.4128 126.45C60.4535 126.866 61.294 127.563 61.9344 128.539C62.5748 129.5 62.895 130.573 62.895 131.757C62.895 132.974 62.5748 134.079 61.9344 135.071C61.31 136.048 60.4295 136.76 59.2928 137.209C58.1721 137.657 56.4351 137.881 54.0816 137.881L48.0058 137.833ZM77.1839 122.368H73.6536V157.693H77.1839V122.368ZM103.746 160.833C114.613 160.833 123.422 152.023 123.422 141.156C123.422 130.29 114.613 121.48 103.746 121.48C92.8789 121.48 84.0695 130.29 84.0695 141.156L84.0696 141.208L84.0698 141.271C84.0696 141.308 84.0695 141.345 84.0695 141.381C84.0695 143.161 84.3263 144.88 84.8048 146.504C87.1344 154.772 94.7323 160.833 103.746 160.833ZM84.8048 146.504C84.3357 144.839 84.0802 143.084 84.0698 141.271C84.1291 131.329 92.2068 123.288 102.163 123.288C112.155 123.288 120.256 131.389 120.256 141.381C120.256 151.374 112.155 159.475 102.163 159.475C93.9492 159.475 87.014 154.002 84.8048 146.504ZM231.486 163.538H2.94441V165.282H231.486V163.538ZM3.73706 171.768L5.88559 179.381H7.24608L8.77383 174.039H8.83331L10.3573 179.381H11.7178L13.8664 171.768H12.3832L11.0116 177.366H10.9447L9.47638 171.768H8.12705L6.66248 177.362H6.59185L5.22022 171.768H3.73706ZM21.6789 171.768V179.381H26.6599V178.225H23.0579V176.147H26.3736V174.991H23.0579V172.924H26.6301V171.768H21.6789ZM44.346 179.381H46.9257C47.6989 179.381 48.3606 179.228 48.9107 178.924C49.4633 178.619 49.8858 178.181 50.1783 177.611C50.4732 177.041 50.6206 176.36 50.6206 175.567C50.6206 174.776 50.4744 174.097 50.182 173.53C49.8896 172.962 49.4708 172.527 48.9256 172.225C48.3829 171.92 47.7336 171.768 46.9778 171.768H44.346V179.381ZM46.8588 178.188H45.7251V172.961H46.8997C47.4152 172.961 47.8464 173.058 48.1933 173.251C48.5427 173.442 48.8066 173.731 48.9851 174.117C49.1635 174.501 49.2527 174.985 49.2527 175.567C49.2527 176.149 49.1635 176.635 48.9851 177.024C48.8066 177.411 48.5402 177.702 48.1859 177.898C47.8315 178.091 47.3891 178.188 46.8588 178.188ZM58.7872 171.768V179.381H63.7682V178.225H60.1662V176.147H63.482V174.991H60.1662V172.924H63.7384V171.768H58.7872ZM75.7002 173.102C75.9579 173.283 76.1042 173.536 76.1388 173.861H77.4659C77.4584 173.432 77.3383 173.053 77.1053 172.723C76.8724 172.391 76.5515 172.132 76.1426 171.946C75.7362 171.758 75.2628 171.664 74.7226 171.664C74.1898 171.664 73.7128 171.758 73.2915 171.946C72.8702 172.132 72.5369 172.394 72.2916 172.731C72.0487 173.068 71.9273 173.461 71.9273 173.909C71.9273 174.454 72.1082 174.892 72.47 175.221C72.8343 175.548 73.3299 175.792 73.9569 175.953L74.823 176.177C75.0956 176.246 75.3335 176.325 75.5367 176.414C75.7423 176.501 75.9022 176.61 76.0162 176.742C76.1302 176.87 76.1884 177.034 76.1909 177.232C76.1884 177.45 76.1227 177.641 75.9939 177.805C75.865 177.966 75.6866 178.092 75.4586 178.184C75.2331 178.273 74.9704 178.318 74.6706 178.318C74.3831 178.318 74.1229 178.274 73.89 178.188C73.6595 178.101 73.4724 177.969 73.3287 177.793C73.1849 177.618 73.1032 177.397 73.0833 177.132H71.7266C71.7464 177.637 71.8777 178.066 72.1206 178.418C72.3659 178.77 72.7054 179.037 73.1391 179.221C73.5752 179.404 74.0894 179.496 74.6817 179.496C75.2913 179.496 75.8105 179.402 76.2392 179.213C76.6704 179.023 77 178.759 77.228 178.422C77.456 178.082 77.57 177.689 77.57 177.243C77.57 176.914 77.508 176.626 77.3841 176.381C77.2602 176.136 77.0917 175.926 76.8786 175.753C76.6679 175.579 76.4288 175.436 76.1612 175.322C75.896 175.208 75.6197 175.117 75.3322 175.05L74.6185 174.872C74.4624 174.835 74.3075 174.789 74.1539 174.734C74.0002 174.68 73.8602 174.613 73.7338 174.534C73.6075 174.452 73.5071 174.353 73.4327 174.236C73.3609 174.12 73.325 173.982 73.325 173.824C73.3274 173.633 73.3832 173.463 73.4922 173.314C73.6013 173.166 73.7586 173.048 73.9643 172.961C74.17 172.874 74.4166 172.831 74.704 172.831C75.1129 172.831 75.445 172.922 75.7002 173.102ZM87.0347 179.381V171.768H85.6557V179.381H87.0347ZM100.228 173.66C100.337 173.819 100.422 173.998 100.484 174.199H101.889C101.832 173.825 101.712 173.483 101.529 173.173C101.345 172.863 101.111 172.596 100.826 172.37C100.544 172.145 100.22 171.971 99.8561 171.85C99.4918 171.726 99.0991 171.664 98.6778 171.664C98.1797 171.664 97.7187 171.753 97.295 171.932C96.8712 172.107 96.502 172.365 96.1873 172.705C95.8725 173.042 95.6272 173.452 95.4513 173.935C95.2778 174.418 95.1911 174.967 95.1911 175.582C95.1911 176.385 95.3385 177.079 95.6334 177.663C95.9308 178.246 96.3434 178.696 96.8712 179.013C97.4015 179.327 98.0174 179.485 98.7187 179.485C99.3481 179.485 99.9057 179.357 100.391 179.102C100.877 178.844 101.259 178.477 101.536 178.002C101.814 177.526 101.953 176.962 101.953 176.31V175.396H98.8636V176.474H100.618C100.611 176.823 100.535 177.129 100.388 177.392C100.234 177.665 100.015 177.875 99.7297 178.024C99.4472 178.173 99.1127 178.247 98.7261 178.247C98.2999 178.247 97.9257 178.144 97.6035 177.938C97.2814 177.73 97.0298 177.427 96.8489 177.028C96.668 176.629 96.5776 176.142 96.5776 175.567C96.5776 174.997 96.668 174.514 96.8489 174.117C97.0323 173.718 97.2838 173.416 97.6035 173.21C97.9232 173.005 98.2875 172.902 98.6964 172.902C98.9243 172.902 99.135 172.931 99.3283 172.991C99.5216 173.048 99.6926 173.133 99.8412 173.247C99.9924 173.361 100.121 173.499 100.228 173.66ZM116.398 179.381V171.768H115.027V176.957H114.96L111.376 171.768H110.142V179.381H111.521V174.195H111.585L115.172 179.381H116.398ZM134.21 171.768V179.381H135.589V176.147H138.752V174.991H135.589V172.924H139.087V171.768H134.21ZM147.2 171.768V179.381H152.181V178.225H148.579V176.147H151.894V174.991H148.579V172.924H152.151V171.768H147.2ZM160.414 171.768V179.381H165.395V178.225H161.793V176.147H165.109V174.991H161.793V172.924H165.365V171.768H160.414ZM173.629 171.768V179.381H178.361V178.225H175.008V171.768H173.629ZM187.793 179.381V171.768H186.414V179.381H187.793ZM202.398 179.381V171.768H201.027V176.957H200.96L197.376 171.768H196.142V179.381H197.521V174.195H197.585L201.172 179.381H202.398ZM215.601 173.66C215.71 173.819 215.795 173.998 215.857 174.199H217.262C217.205 173.825 217.085 173.483 216.902 173.173C216.718 172.863 216.484 172.596 216.199 172.37C215.917 172.145 215.593 171.971 215.229 171.85C214.865 171.726 214.472 171.664 214.051 171.664C213.553 171.664 213.092 171.753 212.668 171.932C212.244 172.107 211.875 172.365 211.56 172.705C211.245 173.042 211 173.452 210.824 173.935C210.651 174.418 210.564 174.967 210.564 175.582C210.564 176.385 210.711 177.079 211.006 177.663C211.304 178.246 211.716 178.696 212.244 179.013C212.774 179.327 213.39 179.485 214.092 179.485C214.721 179.485 215.279 179.357 215.764 179.102C216.25 178.844 216.632 178.477 216.909 178.002C217.187 177.526 217.326 176.962 217.326 176.31V175.396H214.237V176.474H215.991C215.984 176.823 215.908 177.129 215.761 177.392C215.607 177.665 215.388 177.875 215.103 178.024C214.82 178.173 214.486 178.247 214.099 178.247C213.673 178.247 213.299 178.144 212.976 177.938C212.654 177.73 212.403 177.427 212.222 177.028C212.041 176.629 211.951 176.142 211.951 175.567C211.951 174.997 212.041 174.514 212.222 174.117C212.405 173.718 212.657 173.416 212.976 173.21C213.296 173.005 213.66 172.902 214.069 172.902C214.297 172.902 214.508 172.931 214.701 172.991C214.895 173.048 215.065 173.133 215.214 173.247C215.365 173.361 215.494 173.499 215.601 173.66ZM229.214 173.102C229.472 173.283 229.618 173.536 229.653 173.861H230.98C230.972 173.432 230.852 173.053 230.619 172.723C230.386 172.391 230.065 172.132 229.656 171.946C229.25 171.758 228.777 171.664 228.236 171.664C227.703 171.664 227.226 171.758 226.805 171.946C226.384 172.132 226.051 172.394 225.805 172.731C225.562 173.068 225.441 173.461 225.441 173.909C225.441 174.454 225.622 174.892 225.984 175.221C226.348 175.548 226.844 175.792 227.471 175.953L228.337 176.177C228.609 176.246 228.847 176.325 229.05 176.414C229.256 176.501 229.416 176.61 229.53 176.742C229.644 176.87 229.702 177.034 229.705 177.232C229.702 177.45 229.636 177.641 229.508 177.805C229.379 177.966 229.2 178.092 228.972 178.184C228.747 178.273 228.484 178.318 228.184 178.318C227.897 178.318 227.637 178.274 227.404 178.188C227.173 178.101 226.986 177.969 226.842 177.793C226.699 177.618 226.617 177.397 226.597 177.132H225.24C225.26 177.637 225.391 178.066 225.634 178.418C225.88 178.77 226.219 179.037 226.653 179.221C227.089 179.404 227.603 179.496 228.195 179.496C228.805 179.496 229.324 179.402 229.753 179.213C230.184 179.023 230.514 178.759 230.742 178.422C230.97 178.082 231.084 177.689 231.084 177.243C231.084 176.914 231.022 176.626 230.898 176.381C230.774 176.136 230.605 175.926 230.392 175.753C230.182 175.579 229.942 175.436 229.675 175.322C229.41 175.208 229.133 175.117 228.846 175.05L228.132 174.872C227.976 174.835 227.821 174.789 227.668 174.734C227.514 174.68 227.374 174.613 227.248 174.534C227.121 174.452 227.021 174.353 226.946 174.236C226.875 174.12 226.839 173.982 226.839 173.824C226.841 173.633 226.897 173.463 227.006 173.314C227.115 173.166 227.272 173.048 227.478 172.961C227.684 172.874 227.93 172.831 228.218 172.831C228.627 172.831 228.959 172.922 229.214 173.102ZM130.579 158.596V123.27H131.347L154.834 150.311V123.27H158.316V158.596H157.524L134.229 131.891V158.596H130.579ZM182.407 123.27H178.877V144.595C178.877 148.181 179.093 150.663 179.525 152.04C180.214 154.281 181.575 156.082 183.608 157.443C185.641 158.804 188.083 159.484 190.932 159.484C193.558 159.484 195.791 158.764 197.633 157.323C199.49 155.882 200.722 154.193 201.331 152.256C201.955 150.303 202.267 147.749 202.267 144.595V123.27H198.737V144.595C198.737 147.381 198.617 149.222 198.377 150.119C198.041 151.367 197.513 152.432 196.792 153.313C196.072 154.193 195.175 154.882 194.102 155.378C193.03 155.874 191.909 156.122 190.74 156.122C189.395 156.122 188.059 155.81 186.73 155.186C185.401 154.545 184.416 153.761 183.776 152.832C183.136 151.888 182.727 150.719 182.551 149.326C182.455 148.702 182.407 147.125 182.407 144.595V123.27ZM213.242 123.27H209.112L217.745 137.517L219.606 140.393L221.403 143.331L217.276 144.158L208.343 158.596H212.474L221.696 143.779L230.869 158.596H235L223.785 140.393L234.303 123.27H230.221L221.696 137.055L213.242 123.27Z" fill="#545454"/>
<path d="M152.941 15.23C152.619 15.0553 152.251 14.9342 151.984 14.6989C144.235 7.87926 135.254 3.7008 124.987 2.64105C106.524 0.735823 91.3681 7.18052 79.6712 21.4953C73.8857 28.5759 70.5737 36.8745 69.5023 45.9535C68.1537 57.3732 70.4852 68.0476 76.5688 77.8532C76.7808 78.1956 77.0929 78.4751 77.3561 78.7849C77.5401 79.1552 77.6659 79.5698 77.9151 79.8889C79.2241 81.5705 80.4794 83.3057 81.9095 84.8825C88.1609 91.7721 95.8261 96.4163 104.744 99.0157C105.089 99.1158 105.65 99.2439 105.809 99.0762C106.754 98.07 107.765 97.0732 108.469 95.9016C109.929 93.4653 109.582 90.7333 109.358 88.0664C109.24 86.6433 108.888 85.2365 108.811 83.8134C108.736 82.4439 108.259 81.3422 107.274 80.4246C105.571 78.8408 103.857 77.2686 102.171 75.6638C100.57 74.1406 98.7841 72.9015 96.6017 72.4799C95.8191 72.3285 94.7477 72.4473 94.1281 72.8922C91.4007 74.8416 88.7991 76.9705 86.1299 79.0061C83.4165 81.079 79.5012 80.9766 77.3328 78.8058C76.7482 71.667 80.9383 66.2542 88.0677 65.022C90.2082 64.6517 91.813 63.8319 92.535 61.5586C93.0008 60.0866 94.1561 59.0059 95.6397 58.4236C96.6086 58.0416 97.6172 57.7528 98.614 57.4501C100.072 57.0098 100.596 56.1527 100.3 54.6598C99.8881 52.5961 98.6303 51.0473 97.3237 49.4844C96.3664 48.3385 95.4115 47.1087 94.8152 45.7555C93.0195 41.6958 94.4402 38.109 98.6746 36.7418C100.976 35.9988 103.563 35.8474 106.007 35.9243C108.513 36.0035 111.198 39.7301 110.795 42.2152C110.593 43.4706 111.033 44.2253 111.986 44.8471C112.538 45.2058 113.117 45.5249 113.656 45.9022C114.708 46.6406 114.699 47.167 113.656 47.9076C113.497 48.0194 113.341 48.1312 113.483 48.3432C113.483 49.2702 113.486 50.1948 113.479 51.1195C113.479 51.2313 113.355 51.3803 113.397 51.4502C114.28 52.9618 112.968 53.4509 112.151 54.1846C111.492 54.7762 110.798 55.3771 111.333 56.6791C112.193 56.1085 113.045 55.6706 113.742 55.0557C115.225 53.7491 116.583 52.3004 118.074 51.0007C119.392 49.8524 120.873 49.0675 122.753 49.5799C123.047 49.6591 123.473 49.4122 123.787 49.2282C133.686 43.3635 143.58 37.4918 153.465 31.6014C153.831 31.3825 154.229 31.0145 154.357 30.6325C155.403 27.5045 158.018 26.3609 160.82 25.2802C160.799 25.1567 160.757 24.9052 160.716 24.6513C161.198 25.2382 161.682 25.8252 162.188 26.4401C163.087 25.8927 163.899 25.3966 164.833 24.826C164.272 24.5279 163.858 24.3112 163.203 23.9642C165.129 23.5496 166.79 23.1909 168.453 22.8346C168.492 22.9114 168.532 22.9883 168.574 23.0652C167.505 24.2647 166.436 25.4665 165.229 26.822C165.162 26.2048 165.115 25.7786 165.059 25.2476C164.153 25.7809 163.294 26.2863 162.304 26.8686C163.848 27.9866 164.23 29.6053 164.826 31.3662C165.313 31.4617 165.67 31.8134 165.281 32.6542C165.155 32.929 165.334 33.3925 165.469 33.7326C168.336 40.9063 169.429 48.3828 168.856 56.0386C167.966 67.9381 163.527 78.4122 155.417 87.2046C146.925 96.4094 136.388 101.864 123.978 103.457C99.6831 106.578 76.5805 92.0539 68.7313 68.8767C58.5577 38.8357 77.7823 6.75895 109.202 1.70008C125.63 -0.945804 140.098 3.62161 152.51 14.6966C152.68 14.848 152.801 15.0506 152.946 15.23H152.941ZM164.731 32.908C164.384 33.3995 164.072 33.7069 163.923 34.0796C163.543 35.0206 162.854 35.3932 161.899 35.2581C160.597 35.0741 159.651 35.6191 158.864 36.5857C158.277 37.3054 157.608 37.9692 157.087 38.7332C153.502 43.99 148.972 48.0357 142.895 50.2554C140.461 51.1451 138.465 52.7871 136.765 54.7553C135.524 56.1947 134.329 57.676 133.025 59.0571C132.4 59.7163 131.641 60.3312 130.821 60.6969C130.088 61.0253 129.973 61.3863 130.025 62.099C130.192 64.4537 130.456 66.8225 130.362 69.1702C130.258 71.7788 130.581 74.2268 131.497 76.6793C132.137 78.4006 132.694 80.2592 132.738 82.0689C132.806 84.8033 133.828 86.8599 135.959 88.4251C138.104 90.0019 139.558 92.0166 140.152 94.6299C140.233 94.9839 140.389 95.3217 140.517 95.678C164.778 83.8903 174.12 55.3655 164.729 32.908H164.731ZM154.119 31.7342C146.62 36.1944 139.19 40.6151 131.921 44.938C133.022 44.8239 134.224 44.6049 135.428 44.5979C136.586 44.5886 137.545 44.2532 138.375 43.4776C141.402 40.6431 145.031 38.9149 148.881 37.4871C150.47 36.8978 151.923 35.8497 153.304 34.8319C154.222 34.1541 154.406 33.0268 154.117 31.7365L154.119 31.7342ZM130.98 45.5016C128.588 46.9247 126.198 48.3478 123.806 49.7709C127.244 50.1506 128.872 47.4115 130.98 45.5016Z" fill="#545454"/>
</svg>
