<svg width="146" height="112" viewBox="0 0 146 112" fill="none" xmlns="http://www.w3.org/2000/svg">
<path fill-rule="evenodd" clip-rule="evenodd" d="M19.754 78.5244C17.5161 76.3063 14.736 75.1973 11.4137 75.1973C9.36477 75.1973 7.45998 75.7095 5.69942 76.734C3.93887 77.7486 2.54634 79.156 1.52183 80.9564C0.507279 82.7567 0 84.7112 0 86.8199C0 89.9829 1.119 92.6785 3.35699 94.9065C5.59499 97.1346 8.34027 98.2486 11.5928 98.2486C14.8056 98.2486 17.526 97.1296 19.754 94.8916C21.992 92.6537 23.111 89.9283 23.111 86.7154C23.111 83.4729 21.992 80.7425 19.754 78.5244ZM6.90795 78.6139C8.36016 77.7685 9.89691 77.3457 11.5182 77.3457C13.1694 77.3457 14.731 77.7685 16.2031 78.6139C17.6752 79.4594 18.8141 80.5884 19.6198 82.0008C20.4354 83.4032 20.8432 84.9748 20.8432 86.7154C20.8432 88.4661 20.4354 90.0575 19.6198 91.4899C18.8141 92.9221 17.6851 94.0511 16.233 94.8767C14.7907 95.7023 13.2191 96.1151 11.5182 96.1151C8.97187 96.1151 6.79356 95.2199 4.98327 93.4295C3.18293 91.6291 2.28275 89.4259 2.28275 86.8199C2.28275 85.0594 2.69057 83.4629 3.5062 82.0306C4.32182 80.5983 5.45574 79.4594 6.90795 78.6139ZM32.0033 75.7493H27.6318V97.6966H29.825V87.4914H31.0784L38.956 97.6966H41.6715L33.7789 87.4914C35.619 87.4814 37.0612 87.2477 38.1056 86.7901C39.15 86.3226 39.9507 85.6362 40.5078 84.7311C41.0746 83.826 41.3581 82.7766 41.3581 81.583C41.3581 80.1507 40.9504 78.9472 40.1347 77.9724C39.3191 76.9877 38.2598 76.3461 36.9568 76.0477C36.0914 75.8488 34.4403 75.7493 32.0033 75.7493ZM29.825 85.3578V77.8978H33.6893C35.1912 77.8978 36.2655 78.0271 36.912 78.2857C37.5585 78.5443 38.0808 78.977 38.4786 79.5837C38.8765 80.1805 39.0754 80.847 39.0754 81.583C39.0754 82.339 38.8765 83.0253 38.4786 83.642C38.0906 84.2487 37.5437 84.6913 36.8374 84.9698C36.1412 85.2484 35.062 85.3876 33.5998 85.3876L29.825 85.3578ZM47.9528 75.7493H45.7595V97.6966H47.9528V75.7493ZM64.4555 99.6466C71.2069 99.6466 76.68 94.1735 76.68 87.4221C76.68 80.6707 71.2069 75.1977 64.4555 75.1977C57.7041 75.1977 52.2311 80.6707 52.2311 87.4221L52.2313 87.4937L52.2311 87.5622C52.2311 88.6705 52.3914 89.7412 52.6902 90.7526C54.1403 95.8853 58.8587 99.6466 64.4555 99.6466ZM52.6902 90.7526C52.3973 89.7157 52.2377 88.6228 52.2313 87.4937C52.2682 81.317 57.2867 76.3214 63.472 76.3214C69.6801 76.3214 74.7128 81.3541 74.7128 87.5622C74.7128 93.7704 69.6801 98.8031 63.472 98.8031C58.372 98.8031 54.0653 95.4068 52.6902 90.7526ZM143.818 101.327H1.82945V102.411H143.818V101.327ZM2.32183 106.228L3.65666 110.957H4.5019L5.45107 107.639H5.48802L6.43488 110.957H7.28012L8.61495 106.228H7.6935L6.84133 109.706H6.79976L5.88755 106.228H5.04923L4.13933 109.703H4.09545L3.24328 106.228H2.32183ZM13.4687 106.228V110.957H16.5633V110.239H14.3255V108.948H16.3855V108.23H14.3255V106.946H16.5448V106.228H13.4687ZM27.5514 110.957H29.1541C29.6344 110.957 30.0455 110.863 30.3873 110.673C30.7306 110.484 30.9931 110.212 31.1748 109.858C31.358 109.504 31.4496 109.081 31.4496 108.588C31.4496 108.097 31.3588 107.675 31.1771 107.322C30.9954 106.97 30.7353 106.7 30.3965 106.512C30.0594 106.322 29.656 106.228 29.1864 106.228H27.5514V110.957ZM29.1125 110.216H28.4081V106.969H29.1379C29.4582 106.969 29.726 107.029 29.9416 107.149C30.1587 107.268 30.3226 107.447 30.4335 107.687C30.5443 107.926 30.5998 108.226 30.5998 108.588C30.5998 108.95 30.5443 109.251 30.4335 109.493C30.3226 109.733 30.1571 109.914 29.937 110.036C29.7168 110.156 29.442 110.216 29.1125 110.216ZM36.5233 106.228V110.957H39.618V110.239H37.3801V108.948H39.4401V108.23H37.3801V106.946H39.5995V106.228H36.5233ZM47.0311 107.057C47.1912 107.169 47.282 107.326 47.3036 107.528H48.1281C48.1234 107.262 48.0488 107.026 47.904 106.821C47.7593 106.615 47.5599 106.454 47.3059 106.339C47.0534 106.222 46.7594 106.163 46.4237 106.163C46.0927 106.163 45.7963 106.222 45.5346 106.339C45.2729 106.454 45.0658 106.616 44.9134 106.826C44.7625 107.035 44.687 107.279 44.687 107.558C44.687 107.897 44.7994 108.168 45.0242 108.373C45.2505 108.576 45.5585 108.728 45.948 108.828L46.4861 108.967C46.6554 109.01 46.8032 109.059 46.9295 109.114C47.0573 109.168 47.1566 109.236 47.2274 109.318C47.2982 109.398 47.3344 109.499 47.3359 109.623C47.3344 109.758 47.2936 109.877 47.2135 109.978C47.1335 110.078 47.0226 110.157 46.881 110.214C46.7409 110.269 46.5777 110.297 46.3914 110.297C46.2128 110.297 46.0511 110.27 45.9064 110.216C45.7632 110.162 45.647 110.081 45.5577 109.971C45.4684 109.862 45.4176 109.725 45.4053 109.56H44.5623C44.5747 109.874 44.6563 110.141 44.8071 110.359C44.9596 110.578 45.1705 110.744 45.4399 110.858C45.7109 110.972 46.0303 111.029 46.3983 111.029C46.7771 111.029 47.0996 110.97 47.366 110.853C47.6338 110.735 47.8386 110.571 47.9803 110.362C48.1219 110.151 48.1927 109.907 48.1927 109.629C48.1927 109.425 48.1542 109.246 48.0773 109.094C48.0003 108.941 47.8956 108.811 47.7632 108.703C47.6323 108.596 47.4837 108.506 47.3175 108.435C47.1527 108.365 46.9811 108.308 46.8025 108.267L46.3591 108.156C46.2621 108.133 46.1658 108.104 46.0704 108.071C45.9749 108.037 45.8879 107.995 45.8094 107.946C45.7309 107.895 45.6685 107.833 45.6224 107.761C45.5777 107.689 45.5554 107.603 45.5554 107.505C45.5569 107.386 45.5916 107.281 45.6593 107.188C45.7271 107.096 45.8248 107.023 45.9526 106.969C46.0804 106.915 46.2336 106.888 46.4122 106.888C46.6662 106.888 46.8725 106.944 47.0311 107.057ZM54.073 110.957V106.228H53.2162V110.957H54.073ZM62.2696 107.403C62.3373 107.502 62.3905 107.613 62.429 107.738H63.3019C63.2665 107.506 63.1918 107.293 63.0779 107.101C62.964 106.908 62.8185 106.742 62.6414 106.602C62.4659 106.462 62.265 106.354 62.0387 106.278C61.8123 106.202 61.5683 106.163 61.3066 106.163C60.9971 106.163 60.7108 106.218 60.4475 106.329C60.1842 106.439 59.9548 106.599 59.7593 106.81C59.5638 107.019 59.4113 107.274 59.302 107.574C59.1943 107.874 59.1404 108.215 59.1404 108.597C59.1404 109.096 59.232 109.527 59.4152 109.89C59.5999 110.252 59.8563 110.532 60.1842 110.729C60.5137 110.924 60.8963 111.022 61.332 111.022C61.723 111.022 62.0695 110.943 62.3712 110.784C62.673 110.624 62.9101 110.396 63.0825 110.101C63.255 109.805 63.3412 109.455 63.3412 109.05V108.482H61.4221V109.151H62.5118C62.5078 109.368 62.4602 109.558 62.3689 109.722C62.2735 109.891 62.1372 110.022 61.9601 110.114C61.7846 110.207 61.5768 110.253 61.3366 110.253C61.0718 110.253 60.8393 110.189 60.6392 110.061C60.439 109.932 60.2827 109.743 60.1704 109.495C60.058 109.248 60.0018 108.945 60.0018 108.588C60.0018 108.234 60.058 107.934 60.1704 107.687C60.2843 107.439 60.4406 107.252 60.6392 107.124C60.8378 106.996 61.0641 106.932 61.3181 106.932C61.4598 106.932 61.5906 106.951 61.7107 106.987C61.8308 107.023 61.9371 107.076 62.0294 107.147C62.1233 107.218 62.2034 107.303 62.2696 107.403ZM72.316 110.957V106.228H71.4639V109.452H71.4223L69.196 106.228H68.4293V110.957H69.2861V107.736H69.3254L71.5539 110.957H72.316ZM83.382 106.228V110.957H84.2388V108.948H86.2041V108.23H84.2388V106.946H86.412V106.228H83.382ZM91.4522 106.228V110.957H94.5468V110.239H92.309V108.948H94.369V108.23H92.309V106.946H94.5283V106.228H91.4522ZM99.6621 106.228V110.957H102.757V110.239H100.519V108.948H102.579V108.23H100.519V106.946H102.738V106.228H99.6621ZM107.872 106.228V110.957H110.812V110.239H108.729V106.228H107.872ZM116.672 110.957V106.228H115.815V110.957H116.672ZM125.746 110.957V106.228H124.894V109.452H124.852L122.626 106.228H121.859V110.957H122.716V107.736H122.755L124.984 110.957H125.746ZM133.949 107.403C134.016 107.502 134.069 107.613 134.108 107.738H134.981C134.945 107.506 134.871 107.293 134.757 107.101C134.643 106.908 134.497 106.742 134.32 106.602C134.145 106.462 133.944 106.354 133.718 106.278C133.491 106.202 133.247 106.163 132.985 106.163C132.676 106.163 132.39 106.218 132.126 106.329C131.863 106.439 131.634 106.599 131.438 106.81C131.243 107.019 131.09 107.274 130.981 107.574C130.873 107.874 130.819 108.215 130.819 108.597C130.819 109.096 130.911 109.527 131.094 109.89C131.279 110.252 131.535 110.532 131.863 110.729C132.193 110.924 132.575 111.022 133.011 111.022C133.402 111.022 133.748 110.943 134.05 110.784C134.352 110.624 134.589 110.396 134.761 110.101C134.934 109.805 135.02 109.455 135.02 109.05V108.482H133.101V109.151H134.191C134.187 109.368 134.139 109.558 134.048 109.722C133.952 109.891 133.816 110.022 133.639 110.114C133.464 110.207 133.256 110.253 133.015 110.253C132.751 110.253 132.518 110.189 132.318 110.061C132.118 109.932 131.962 109.743 131.849 109.495C131.737 109.248 131.681 108.945 131.681 108.588C131.681 108.234 131.737 107.934 131.849 107.687C131.963 107.439 132.119 107.252 132.318 107.124C132.517 106.996 132.743 106.932 132.997 106.932C133.139 106.932 133.27 106.951 133.39 106.987C133.51 107.023 133.616 107.076 133.708 107.147C133.802 107.218 133.882 107.303 133.949 107.403ZM142.406 107.057C142.566 107.169 142.657 107.326 142.679 107.528H143.503C143.498 107.262 143.424 107.026 143.279 106.821C143.134 106.615 142.935 106.454 142.681 106.339C142.428 106.222 142.134 106.163 141.799 106.163C141.468 106.163 141.171 106.222 140.91 106.339C140.648 106.454 140.441 106.616 140.288 106.826C140.137 107.035 140.062 107.279 140.062 107.558C140.062 107.897 140.174 108.168 140.399 108.373C140.626 108.576 140.933 108.728 141.323 108.828L141.861 108.967C142.03 109.01 142.178 109.059 142.304 109.114C142.432 109.168 142.532 109.236 142.602 109.318C142.673 109.398 142.709 109.499 142.711 109.623C142.709 109.758 142.669 109.877 142.589 109.978C142.508 110.078 142.398 110.157 142.256 110.214C142.116 110.269 141.953 110.297 141.766 110.297C141.588 110.297 141.426 110.27 141.281 110.216C141.138 110.162 141.022 110.081 140.933 109.971C140.843 109.862 140.793 109.725 140.78 109.56H139.937C139.95 109.874 140.031 110.141 140.182 110.359C140.335 110.578 140.545 110.744 140.815 110.858C141.086 110.972 141.405 111.029 141.773 111.029C142.152 111.029 142.475 110.97 142.741 110.853C143.009 110.735 143.214 110.571 143.355 110.362C143.497 110.151 143.568 109.907 143.568 109.629C143.568 109.425 143.529 109.246 143.452 109.094C143.375 108.941 143.271 108.811 143.138 108.703C143.007 108.596 142.859 108.506 142.692 108.435C142.528 108.365 142.356 108.308 142.177 108.267L141.734 108.156C141.637 108.133 141.541 108.104 141.445 108.071C141.35 108.037 141.263 107.995 141.184 107.946C141.106 107.895 141.044 107.833 140.997 107.761C140.953 107.689 140.93 107.603 140.93 107.505C140.932 107.386 140.967 107.281 141.034 107.188C141.102 107.096 141.2 107.023 141.328 106.969C141.455 106.915 141.609 106.888 141.787 106.888C142.041 106.888 142.247 106.944 142.406 107.057ZM81.126 98.2566V76.3094H81.6034L96.1951 93.1093V76.3094H98.3585V98.2566H97.8662L83.3938 81.6656V98.2566H81.126ZM113.326 76.3094H111.132V89.5583C111.132 91.7863 111.267 93.3281 111.535 94.1835C111.963 95.576 112.808 96.695 114.072 97.5405C115.335 98.386 116.852 98.8086 118.622 98.8086C120.253 98.8086 121.641 98.3611 122.785 97.4658C123.939 96.5707 124.705 95.5214 125.083 94.3178C125.47 93.1043 125.664 91.5177 125.664 89.5583V76.3094H123.471V89.5583C123.471 91.289 123.397 92.4329 123.247 92.9899C123.038 93.7657 122.71 94.4272 122.263 94.9743C121.815 95.5214 121.258 95.949 120.592 96.2574C119.925 96.5657 119.229 96.7199 118.503 96.7199C117.667 96.7199 116.837 96.5259 116.011 96.138C115.186 95.7402 114.574 95.2528 114.176 94.6759C113.778 94.089 113.525 93.3629 113.415 92.4976C113.355 92.1096 113.326 91.1299 113.326 89.5583V76.3094ZM132.483 76.3094H129.917L135.281 85.1605L136.437 86.9473L137.553 88.7727L134.989 89.2866L129.439 98.2566H132.005L137.735 89.0511L143.434 98.2566H146L139.033 86.9473L145.568 76.3094H143.031L137.735 84.8734L132.483 76.3094Z" fill="#545454"/>
<path d="M95.0193 9.18699C94.8196 9.07847 94.5909 9.00322 94.4245 8.85707C89.6102 4.62014 84.0304 2.02415 77.6519 1.36574C66.1812 0.182066 56.7653 4.18603 49.4983 13.0795C45.9038 17.4785 43.8462 22.6343 43.1805 28.2749C42.3427 35.3697 43.7912 42.0015 47.5708 48.0935C47.7025 48.3063 47.8964 48.4799 48.0599 48.6724C48.1742 48.9024 48.2524 49.16 48.4072 49.3583C49.2205 50.403 50.0004 51.4811 50.8889 52.4607C54.7727 56.741 59.535 59.6264 65.0757 61.2413C65.2898 61.3036 65.6386 61.3831 65.737 61.279C66.3245 60.6538 66.9525 60.0345 67.3895 59.3067C68.2968 57.7931 68.0812 56.0957 67.9423 54.4388C67.8685 53.5547 67.6499 52.6807 67.6022 51.7965C67.5559 50.9457 67.2593 50.2612 66.6472 49.6911C65.5894 48.7071 64.5243 47.7303 63.4767 46.7333C62.4826 45.787 61.3727 45.0171 60.0168 44.7552C59.5306 44.6612 58.865 44.735 58.4801 45.0113C56.7856 46.2225 55.1692 47.5451 53.5109 48.8098C51.8251 50.0977 49.3927 50.034 48.0455 48.6854C47.6823 44.2502 50.2855 40.8873 54.7149 40.1218C56.0447 39.8917 57.0417 39.3824 57.4903 37.9701C57.7797 37.0555 58.4974 36.3841 59.4192 36.0223C60.0212 35.785 60.6477 35.6056 61.2671 35.4175C62.1729 35.144 62.4985 34.6115 62.3147 33.6839C62.0586 32.4018 61.2772 31.4396 60.4654 30.4686C59.8707 29.7567 59.2774 28.9926 58.9069 28.1519C57.7913 25.6297 58.674 23.4013 61.3047 22.5518C62.7344 22.0902 64.342 21.9962 65.86 22.0439C67.417 22.0931 69.0854 24.4084 68.8351 25.9524C68.7092 26.7323 68.9827 27.2012 69.5745 27.5875C69.9175 27.8104 70.2778 28.0086 70.612 28.2431C71.2661 28.7018 71.2603 29.0288 70.612 29.489C70.5136 29.5584 70.4167 29.6279 70.505 29.7596C70.505 30.3355 70.5064 30.9099 70.5021 31.4844C70.5021 31.5539 70.4254 31.6465 70.4514 31.6899C70.9998 32.629 70.1852 32.9329 69.6773 33.3887C69.2677 33.7563 68.8365 34.1296 69.1693 34.9385C69.7033 34.584 70.2329 34.3119 70.6656 33.9299C71.5873 33.1181 72.431 32.2181 73.3571 31.4106C74.1761 30.6972 75.0964 30.2096 76.2642 30.5279C76.4465 30.5771 76.7113 30.4237 76.9067 30.3094C83.0566 26.6658 89.2036 23.0178 95.3448 19.3582C95.572 19.2222 95.8195 18.9936 95.899 18.7563C96.5488 16.8129 98.1738 16.1024 99.9146 15.431C99.9016 15.3543 99.8755 15.198 99.8495 15.0403C100.149 15.4049 100.45 15.7696 100.764 16.1516C101.323 15.8115 101.828 15.5033 102.408 15.1488C102.059 14.9636 101.802 14.829 101.395 14.6134C102.592 14.3558 103.623 14.133 104.657 13.9116C104.681 13.9593 104.706 14.0071 104.732 14.0548C104.068 14.8001 103.403 15.5467 102.654 16.3889C102.612 16.0054 102.583 15.7406 102.548 15.4107C101.985 15.7421 101.451 16.0561 100.836 16.4179C101.796 17.1124 102.033 18.1181 102.403 19.2121C102.706 19.2714 102.927 19.4899 102.686 20.0123C102.608 20.183 102.719 20.471 102.803 20.6823C104.584 25.1392 105.263 29.7842 104.907 34.5406C104.354 41.9335 101.596 48.4408 96.5575 53.9034C91.2816 59.6221 84.7351 63.0111 77.0253 64.0008C61.9312 65.9399 47.5781 56.9161 42.7015 42.5167C36.3809 23.8527 48.3247 3.92411 67.8453 0.781141C78.0513 -0.862695 87.0403 1.97495 94.7515 8.85562C94.8572 8.94968 94.9324 9.07557 95.0221 9.18699H95.0193ZM102.344 20.17C102.129 20.4753 101.935 20.6664 101.842 20.8979C101.606 21.4825 101.178 21.714 100.585 21.6301C99.7757 21.5158 99.1882 21.8544 98.6991 22.4549C98.3344 22.902 97.9191 23.3144 97.595 23.7891C95.368 27.055 92.5535 29.5685 88.7782 30.9476C87.266 31.5003 86.0259 32.5205 84.9696 33.7433C84.1983 34.6375 83.456 35.5578 82.6456 36.4159C82.2578 36.8254 81.7861 37.2075 81.2767 37.4347C80.8209 37.6387 80.75 37.863 80.7818 38.3058C80.886 39.7687 81.0495 41.2404 80.9917 42.699C80.9265 44.3197 81.1277 45.8405 81.6964 47.3642C82.0943 48.4336 82.4401 49.5883 82.4676 50.7127C82.5096 52.4115 83.1448 53.6892 84.4689 54.6617C85.8016 55.6413 86.7046 56.893 87.0736 58.5166C87.1242 58.7365 87.2212 58.9463 87.3007 59.1677C102.373 51.8443 108.177 34.1224 102.343 20.17H102.344ZM95.7515 19.4407C91.092 22.2118 86.4759 24.9583 81.9597 27.644C82.6442 27.5731 83.3908 27.4371 84.139 27.4327C84.8581 27.4269 85.4543 27.2186 85.9695 26.7367C87.8506 24.9756 90.1051 23.9019 92.4971 23.0149C93.4839 22.6488 94.3869 21.9976 95.245 21.3653C95.8151 20.9442 95.9294 20.2438 95.75 19.4422L95.7515 19.4407ZM81.3751 27.9942C79.889 28.8783 78.4043 29.7624 76.9182 30.6466C79.0541 30.8825 80.0655 29.1807 81.3751 27.9942Z" fill="#545454"/>
</svg>
