<svg width="180" height="172" viewBox="0 0 180 172" fill="none" xmlns="http://www.w3.org/2000/svg">
<g filter="url(#filter0_d_429_3085)">
<path d="M51.8174 99.9418C53.25 102.021 54.3314 104.092 54.9452 105.525C54.5764 105.198 54.1868 104.687 53.7867 104.033C51.5071 101.088 48.9154 97.6959 46.1443 94.0127C45.2584 93.4222 44.3302 92.9568 43.3691 92.6673C36.4032 90.5691 28.5923 96.3208 21.8306 98.5895C16.4212 100.404 11.2474 97.8499 9.33668 96.3457C10.0053 93.8456 13.2847 88.62 21.053 87.7182C28.8213 86.8164 29.7302 82.7339 29.2136 80.8054C26.6827 79.9587 19.9335 79.3271 13.1835 83.5748C4.74596 88.8845 -5.76149 75.8422 1.16535 71.3438C8.09218 66.8454 14.6356 72.8687 17.215 71.8728C19.7943 70.8769 22.0044 67.7435 18.1522 64.557C14.3 61.3705 11.0212 64.6884 2.26771 61.7984C-6.48583 58.9084 -6.01014 48.9211 1.49012 50.927C8.99038 52.933 11.055 55.3277 12.2887 52.9134C13.5224 50.4991 4.14227 47.1671 2.98129 46.8174C1.82031 46.4677 -10.6594 31.5649 1.68355 23.3794C14.0265 15.1939 16.0237 36.3099 16.3397 44.5096C16.6557 52.7092 20.0801 43.8635 19.5067 37.3592C18.9332 30.8549 28.0702 23.2232 31.5194 33.633C34.9687 44.0428 20.2114 50.9943 27.9158 57.3674C29.3715 57.2994 32.5917 55.1289 33.8272 46.9914C35.3716 36.8195 52.8592 39.3011 44.111 52.3685C35.3629 65.4358 32.0841 68.7536 36.9126 71.2212C41.7412 73.6887 47.1182 63.4049 47.4679 62.2439C47.8177 61.0829 58.1156 53.801 58.0819 63.1617C58.0482 72.5223 46.6816 79.9889 47.697 85.8665C48.3364 89.5674 50.0138 95.4887 51.8174 99.9418Z" fill="#FFBF23"/>
<path d="M54.9452 105.525C53.4085 101.939 48.9418 94.346 43.3691 92.6673C36.4032 90.5691 28.5923 96.3208 21.8306 98.5895C16.4212 100.404 11.2474 97.8499 9.33668 96.3457C10.0053 93.8456 13.2847 88.62 21.053 87.7182C28.8213 86.8164 29.7302 82.7339 29.2136 80.8054C26.6827 79.9587 19.9335 79.3271 13.1835 83.5748C4.74596 88.8845 -5.76149 75.8422 1.16535 71.3438C8.09218 66.8454 14.6356 72.8687 17.215 71.8728C19.7943 70.8769 22.0044 67.7435 18.1522 64.557C14.3 61.3705 11.0212 64.6884 2.26771 61.7984C-6.48583 58.9084 -6.01014 48.9211 1.49012 50.927C8.99038 52.933 11.055 55.3277 12.2887 52.9134C13.5224 50.4991 4.14227 47.1671 2.98129 46.8174C1.82031 46.4677 -10.6594 31.5649 1.68355 23.3794C14.0265 15.1939 16.0237 36.3099 16.3397 44.5096C16.6557 52.7092 20.0801 43.8635 19.5067 37.3592C18.9332 30.8549 28.0702 23.2232 31.5194 33.633C34.9687 44.0428 20.2114 50.9943 27.9158 57.3674C29.3715 57.2994 32.5917 55.1289 33.8272 46.9914C35.3716 36.8195 52.8592 39.3011 44.111 52.3685C35.3629 65.4358 32.0841 68.7536 36.9126 71.2212C41.7412 73.6887 47.1182 63.4049 47.4679 62.2439C47.8177 61.0829 58.1156 53.801 58.0819 63.1617C58.0482 72.5223 46.6816 79.9889 47.697 85.8665C48.7125 91.7442 52.3463 103.223 54.9452 105.525ZM54.9452 105.525C51.4463 101.03 47.0735 95.2961 42.3861 88.9852M5.92456 32.0017C7.46219 37.611 14.0083 48.4809 22.1507 60.5646M22.1507 60.5646C21.6143 55.8882 21.3703 44.9613 24.6849 38.6657M22.1507 60.5646C22.8095 61.5424 23.4788 62.5281 24.1568 63.5196M29.9676 71.8707C31.4826 67.0233 35.3781 55.9683 38.8404 50.5276M29.9676 71.8707C27.9898 69.0729 26.04 66.2739 24.1568 63.5196M29.9676 71.8707C33.7333 77.1977 37.6003 82.5204 41.3011 87.5218M32.8421 76.3266C31.4107 75.4734 26.4474 74.3498 18.0458 76.6817C9.6441 79.0137 8.59933 77.2131 9.12716 76.0214M24.1568 63.5196C21.2825 61.9985 13.8754 58.9127 7.24184 58.738M41.3011 87.5218C39.9874 87.1985 35.8493 87.3631 29.8065 90.6082C22.253 94.6645 18.4204 94.7764 17.7938 94.3344M41.3011 87.5218C41.6645 88.0128 42.0262 88.5007 42.3861 88.9852M42.3861 88.9852C42.5031 84.7462 44.104 75.2615 49.5716 71.2353" stroke="black" stroke-width="1.0845"/>
<path d="M61.3239 110.535C62.6253 112.27 63.7464 114.511 62.6619 115.415L57.7396 116.975C58.7835 117.714 58.2499 117.454 57.5281 117.042L57.7396 116.975C56.9536 116.419 55.2733 115.296 52.1056 113.246C42.8873 107.282 42.3451 96.9788 45.0563 100.232C46.0682 101.447 48.4751 103.718 51.2074 106.145C50.7271 104.99 52.2462 104.955 53.1901 105.113C54.9976 105.113 59.1549 105.438 61.3239 106.739C64.0352 108.366 59.6971 108.366 61.3239 110.535Z" fill="#F03A91"/>
<path d="M62.6619 115.415C63.7464 114.511 62.6253 112.27 61.3239 110.535C59.6971 108.366 64.0352 108.366 61.3239 106.739C59.1549 105.438 54.9976 105.113 53.1901 105.113C52.1056 104.932 50.262 105.004 51.5634 106.739C52.8648 108.475 60.4929 113.246 62.6619 115.415ZM62.6619 115.415C60.4929 114.331 47.7676 103.486 45.0563 100.232C42.3451 96.9788 42.8873 107.282 52.1056 113.246C59.4802 118.018 58.7934 117.765 57.5281 117.042L62.6619 115.415Z" stroke="black" stroke-width="1.0845"/>
<path d="M30.4149 96.4359C35.0064 98.6049 46.8632 109.269 54.274 114.872L56.9853 116.499C56.6238 116.499 55.5754 116.608 54.274 117.041C52.6473 117.584 43.429 118.668 32.5839 112.161C23.9079 106.956 22.5347 100.774 28.7882 103.485L48.8515 116.499C49.3937 115.957 48.6346 113.896 41.26 109.992C32.0417 105.112 28.3348 95.4532 30.4149 96.4359Z" fill="#C10A0A" stroke="black" stroke-width="1.0845"/>
<path d="M62.6617 114.33C60.8542 120.476 57.7846 133.851 70.7986 140.358C87.0662 148.492 67.0028 160.421 60.4958 157.71C53.9888 154.999 51.2776 145.781 51.2776 142.527C51.2776 139.274 43.686 168.013 27.9608 156.083C25.0688 153.914 21.0199 147.733 27.9608 140.358C21.6345 139.093 9.5242 134.393 11.6932 125.717C14.4045 114.872 23.6227 114.872 36.6368 116.499C47.8492 117.901 57.8518 118.497 61.4466 115.861L62.6617 114.33Z" fill="#0ACB8B"/>
<path d="M62.6617 114.33C60.8542 120.476 57.7846 133.851 70.7986 140.358C87.0662 148.492 67.0028 160.421 60.4958 157.71C53.9888 154.999 51.2776 145.781 51.2776 142.527C51.2776 139.274 43.686 168.013 27.9608 156.083C25.0688 153.914 21.0199 147.733 27.9608 140.358C21.6345 139.093 9.5242 134.393 11.6932 125.717C14.4045 114.872 23.6227 114.872 36.6368 116.499C49.6508 118.126 61.0349 118.668 62.6617 114.33ZM62.6617 114.33L35.5523 148.492M62.6617 114.33C58.6851 120.656 43.3607 131.682 24.7072 127.344M62.6617 114.33C58.5044 120.114 50.0846 133.634 60.4958 143.612" stroke="black" stroke-width="1.0845"/>
<path d="M60.173 15.3852C70.5885 3.40741 90.8069 -11.6713 91.6236 19.4318C91.6573 20.7145 91.658 22.0758 91.6236 23.519C91.4434 31.0902 90.1051 38.5584 87.9747 45.7514C79.8514 73.1775 65.6989 96.8585 54.8161 106.739C50.5432 98.7018 40.5412 82.8288 42.1439 63.8231C42.1474 63.7636 42.1524 63.7044 42.1592 63.6456C43.4549 48.9291 48.463 32.1949 60.173 15.3852Z" fill="#07875D"/>
<path d="M54.8161 106.739C54.8161 93.526 52.2845 65.8499 62.6536 40.3288M54.8161 106.739C65.6989 96.8585 79.8514 73.1775 87.9747 45.7514M54.8161 106.739C50.5299 98.6768 40.4789 82.73 42.1592 63.6456M60.173 15.3852C60.173 21.0246 65.1246 27.134 67.6004 29.4838M60.173 15.3852C70.5885 3.40741 90.8069 -11.6713 91.6236 19.4318M60.173 15.3852C48.463 32.1949 43.4549 48.9291 42.1592 63.6456M75.3561 16.4698C74.248 18.0627 73.1841 19.6913 72.1629 21.35M67.6004 29.4838C69.0172 26.7116 70.5359 23.9927 72.1629 21.35M67.6004 29.4838C65.7893 33.0276 64.1448 36.6586 62.6536 40.3288M72.1629 21.35C76.6615 22.0595 86.8518 22.6691 91.6236 19.4318M91.6236 19.4318C91.6573 20.7145 91.658 22.0758 91.6236 23.519C91.4434 31.0902 90.1051 38.5584 87.9747 45.7514M62.6536 40.3288C65.7203 42.1363 75.0781 45.7514 87.9747 45.7514M52.0393 75.5752C48.5594 73.2254 41.7114 67.5499 42.1592 63.6456" stroke="black" stroke-width="1.0845"/>
<path d="M70.2529 96.9782C71.5182 95.3515 86.7007 74.8203 86.2669 70.4823C85.7247 65.0597 79.2177 56.926 91.6895 62.3485C93.6777 63.433 97.5458 64.4091 97.112 59.6372C96.5697 53.6725 90.0627 52.0457 92.774 50.419C94.013 49.6755 96.0448 50.8573 98.1965 52.2047C100.753 53.8056 103.479 55.6403 105.246 54.757C108.499 53.1302 103.619 39.574 106.33 34.6937C107.506 32.5767 109.397 32.6025 111.16 34.1515C113.462 36.1732 115.549 40.7898 115.549 46.6233C115.549 56.9261 123.14 39.574 122.056 34.6937C121.545 32.3969 123.677 29.9799 125.851 29.0256C128.297 27.9523 130.795 28.7295 129.647 33.6092C127.478 42.8275 131.274 47.1654 133.443 44.9963C135.612 42.8273 136.696 28.7288 139.95 28.1866C141.577 27.9154 142.797 28.3221 143.203 30.4911C143.231 30.591 143.249 30.7016 143.257 30.8222C143.567 33.0516 143.124 36.9231 141.577 43.3696C138.323 56.9259 150.253 30.3557 158.929 35.7782C167.605 41.2007 151.879 46.081 153.506 48.7923C155.133 51.5035 173.027 47.7078 172.485 53.1303C171.943 58.5528 160.555 57.4683 157.844 58.5528C155.133 59.6372 158.929 65.0598 160.555 67.771C161.42 69.2129 160.905 71.8815 158.929 72.8411C157.188 73.686 154.315 73.2061 150.253 69.3978C141.577 61.264 146.457 58.5528 143.203 58.5528C139.95 58.5528 148.084 71.0246 149.168 72.1091C150.253 73.1936 154.048 81.8696 145.372 76.9893C144.592 76.5505 143.873 76.2081 143.203 75.9495C137.723 73.835 135.506 77.3293 129.647 79.5294C128.256 80.0517 126.66 80.501 124.767 80.785C120.589 81.4118 118.101 82.6823 116.311 84.0386C113.454 86.2029 112.375 88.5855 109.042 88.9188C103.619 89.4611 99.281 91.0879 96.0275 90.0034C93.4247 89.1357 73.5064 99.6895 70.2529 96.9782Z" fill="#FFBF23"/>
<path d="M70.2529 96.9782C71.5182 95.3515 86.7007 74.8203 86.2669 70.4823C85.7247 65.0597 79.2177 56.926 91.6895 62.3485C93.6777 63.433 97.5458 64.4091 97.112 59.6372C96.5697 53.6725 90.0627 52.0457 92.774 50.419C94.013 49.6755 96.0448 50.8573 98.1965 52.2047M70.2529 96.9782C73.5064 99.6895 93.4247 89.1358 96.0275 90.0034C99.281 91.0879 103.619 89.4611 109.041 88.9188C112.375 88.5855 113.454 86.2029 116.311 84.0386M70.2529 96.9782C72.2857 94.3647 88.1675 74.8815 92.2317 71.4897M158.929 35.7782C150.253 30.3557 138.323 56.9259 141.577 43.3696C143.203 36.5915 143.61 32.6601 143.203 30.4911M158.929 35.7782C167.605 41.2007 151.879 46.081 153.506 48.7923C155.133 51.5035 173.027 47.7078 172.485 53.1303M158.929 35.7782L143.746 53.1303M172.485 53.1303C171.943 58.5528 160.555 57.4683 157.844 58.5528C155.133 59.6372 158.929 65.0598 160.555 67.771C161.42 69.2129 160.905 71.8815 158.929 72.8411M172.485 53.1303C163.447 53.1303 145.047 53.1303 143.746 53.1303M143.746 53.1303L158.929 72.8411M143.746 53.1303C139.231 52.9368 134.885 53.1963 130.732 53.8104M158.929 72.8411C157.188 73.686 154.315 73.2061 150.253 69.3978C141.577 61.264 146.457 58.5528 143.203 58.5528C139.95 58.5528 148.084 71.0246 149.168 72.1091C150.253 73.1936 154.048 81.8696 145.372 76.9893C144.592 76.5505 143.873 76.2081 143.203 75.9495M130.732 53.8104C135.25 47.3477 144.071 33.6361 143.203 30.4911M130.732 53.8104C126.951 54.3694 123.329 55.2223 119.887 56.2948M143.203 30.4911C142.797 28.3221 141.577 27.9154 139.95 28.1866C136.696 28.7288 135.612 42.8273 133.443 44.9963C131.274 47.1654 127.478 42.8275 129.647 33.6092C130.795 28.7295 128.297 27.9523 125.851 29.0256M128.02 54.757C133.081 60.5708 143.203 72.9487 143.203 75.9495M143.203 75.9495C137.723 73.835 135.506 77.3293 129.647 79.5294M106.33 61.9929C108.647 53.9326 112.856 37.0797 111.16 34.1515M106.33 61.9929C107.388 61.428 108.473 60.8784 109.584 60.3475M106.33 61.9929C103.866 63.3093 101.55 64.7083 99.3946 66.1443M111.16 34.1515C109.397 32.6025 107.506 32.5767 106.33 34.6937C103.619 39.574 108.499 53.1302 105.246 54.757C103.479 55.6403 100.753 53.8056 98.1965 52.2047M111.16 34.1515C113.462 36.1732 115.549 40.7898 115.549 46.6233C115.549 56.9261 123.14 39.574 122.056 34.6937C121.545 32.3969 123.677 29.9799 125.851 29.0256M119.887 56.2948C122.598 50.3768 127.586 36.6376 125.851 29.0256M119.887 56.2948C116.245 57.4292 112.804 58.8094 109.584 60.3475M109.584 60.3475C115.729 65.4192 128.346 76.3558 129.647 79.5294M129.647 79.5294C128.256 80.0517 126.66 80.501 124.767 80.785C120.589 81.4118 118.101 82.6823 116.311 84.0386M98.1965 52.2047C98.9952 55.4052 100.353 62.6739 99.3946 66.1443M99.3946 66.1443C96.761 67.8987 94.3663 69.7082 92.2317 71.4897M92.2317 71.4897C99.6084 74.2266 114.752 80.5682 116.311 84.0386" stroke="black" stroke-width="1.0845"/>
<path d="M62.9503 114.331L60.7812 110.535C66.8195 98.5484 80.231 84.6499 94.4309 73.7932C94.4879 73.7377 94.5453 73.6936 94.6031 73.6617C102.758 67.4437 111.873 63.1208 121.513 62.6436C128.693 62.2881 136.163 64.0656 143.746 68.7814C143.994 69.1281 144.239 69.4902 144.476 69.866C146.302 72.7544 147.722 76.4506 147.591 80.1688C147.506 82.5807 146.768 85.002 145.064 87.218C141.541 91.7995 133.889 95.5039 119.344 96.4363C116.709 96.6052 114.179 96.8345 111.753 97.1163C83.0268 100.453 69.4573 111.619 62.9503 114.331Z" fill="#07875D"/>
<path d="M60.7812 110.535L62.9503 114.331C69.4573 111.619 83.0268 100.453 111.753 97.1163M60.7812 110.535C66.1381 104.27 78.3796 97.7612 91.1473 90.5205M60.7812 110.535C66.8439 98.5 80.3395 84.5375 94.6031 73.6617M135.07 79.6265C137.726 76.373 143.326 69.866 144.476 69.866M135.07 79.6265C137.033 82.3378 141.78 87.6518 145.064 87.218M135.07 79.6265L147.591 80.1688M135.07 79.6265C127.043 78.8672 119.187 79.8099 111.753 81.846M144.476 69.866C144.239 69.4902 143.994 69.1281 143.746 68.7814C136.163 64.0656 128.693 62.2881 121.513 62.6436M144.476 69.866C146.302 72.7544 147.722 76.4506 147.591 80.1688M145.064 87.218C141.541 91.7995 133.889 95.5039 119.344 96.4363C116.709 96.6052 114.179 96.8345 111.753 97.1163M145.064 87.218C146.768 85.002 147.506 82.5807 147.591 80.1688M111.753 81.846C114.103 75.5683 119.344 62.9389 121.513 62.6436M111.753 81.846C108.406 82.7625 105.145 83.9006 101.992 85.2046M121.513 62.6436C111.873 63.1208 102.758 67.4437 94.6031 73.6617M101.992 85.2046C104.523 89.0404 110.018 96.7928 111.753 97.1163M101.992 85.2046C98.2086 86.7695 94.5805 88.5734 91.1473 90.5205M91.1473 90.5205C91.1473 89.9293 92.6364 74.7463 94.6031 73.6617" stroke="black" stroke-width="1.0845"/>
<path d="M62.9497 110.305L58.0694 106.551L55.9004 104.882C57.3702 97.7167 60.5956 85.5089 65.4625 72.3875C65.4674 72.374 65.4724 72.3605 65.4775 72.3471C70.1849 59.6628 76.4259 46.129 84.0975 35.474C84.2692 35.2355 84.4402 34.998 84.6106 34.7618C84.7399 34.4383 84.9273 34.1701 85.182 33.9698C104.004 7.90225 114.164 -3.97865 126.935 2.93892C133.623 6.56148 129.714 16.7712 123.23 26.798C122.406 28.0708 121.542 29.3407 120.652 30.5937C114.911 38.6782 108.126 46.0634 104.703 49.0303C101.771 51.5713 97.0072 56.5078 91.5798 63.1288C81.9505 74.8757 70.2322 91.9249 62.9497 110.305Z" fill="#0ACB8B"/>
<path d="M58.0694 106.551L62.9497 110.305C70.2322 91.9249 81.9505 74.8757 91.5798 63.1288M58.0694 106.551L55.9004 104.882C57.3717 97.7094 60.6022 85.4838 65.4775 72.3471M58.0694 106.551C60.2694 100.056 63.8518 91.0539 68.6393 81.0231M118.259 13.7839C114.198 16.8159 110.286 20.2903 106.539 24.0867M68.6393 81.0231C67.1738 79.2156 64.4898 74.9499 65.4775 72.3471M68.6393 81.0231C71.6121 74.7945 75.0496 68.1693 78.9094 61.5021M65.4775 72.3471C70.1849 59.6628 76.4259 46.129 84.0975 35.474C84.4621 34.9675 84.8236 34.4661 85.182 33.9698M88.0958 46.8613C86.1532 43.328 82.8509 35.8031 85.182 33.9698M88.0958 46.8613C92.9349 39.7649 98.2348 32.9261 103.941 26.798M88.0958 46.8613C84.8164 51.6703 81.7486 56.5976 78.9094 61.5021M85.182 33.9698C104.004 7.90225 114.164 -3.97865 126.935 2.93892C133.623 6.56148 129.714 16.7712 123.23 26.798M106.539 24.0867C110.867 25.352 120.265 27.6656 123.23 26.798M106.539 24.0867C105.664 24.9734 104.798 25.8777 103.941 26.798M123.23 26.798C122.406 28.0708 121.542 29.3407 120.652 30.5937M103.941 26.798C107.959 28.244 116.927 31.0275 120.652 30.5937M120.652 30.5937C114.911 38.6782 108.126 46.0634 104.703 49.0303C101.771 51.5713 97.0072 56.5078 91.5798 63.1288M78.9094 61.5021C81.289 62.5866 87.1545 64.4302 91.5798 63.1288" stroke="black" stroke-width="1.0845"/>
<path d="M74.5941 118.632C65.0014 121.552 63.1078 118.697 62.7447 116.73C62.6357 116.139 62.6646 115.629 62.6646 115.379C70.5763 109.511 83.4545 101.913 96.6162 97.9761C97.2185 97.6391 97.8347 97.4466 98.4532 97.4513C109.714 94.3879 121.022 94.1811 129.457 100.196C130.763 101.127 132 102.207 133.157 103.449C133.344 103.65 133.525 103.848 133.699 104.044C142.528 113.952 135.133 120.435 122.851 121.38C122.844 121.38 122.836 121.381 122.829 121.381C112.298 122.184 98.1829 118.108 87.6081 117.886C81.8169 117.764 77.0885 117.873 74.5941 118.632Z" fill="#0ACB8B"/>
<path d="M62.6646 116.783C66.4859 114.215 73.3647 110.82 82.1856 108.455M90.3148 106.703C91.5816 103.608 94.9827 97.4249 98.4532 97.4513M90.3148 106.703C87.4601 107.17 84.7414 107.769 82.1856 108.455M90.3148 106.703C96.4639 105.695 103.244 105.299 110.383 105.963M98.4532 97.4513C84.6626 101.203 70.9441 109.239 62.6646 115.379C62.6646 116.463 62.1224 122.428 74.5941 118.632C77.0885 117.873 81.8169 117.764 87.6081 117.886M98.4532 97.4513C109.714 94.3879 121.022 94.1811 129.457 100.196M82.1856 108.455C83.0909 111.35 85.4428 117.289 87.6081 117.886M87.6081 117.886C98.1903 118.108 112.318 122.19 122.851 121.38M110.383 105.963C113.636 110.158 120.682 121.587 122.851 121.38M110.383 105.963C112.698 106.178 115.051 106.505 117.432 106.959M122.851 121.38C135.133 120.435 142.528 113.952 133.699 104.044M117.432 106.959C118.69 107.199 119.955 107.474 121.228 107.787C124.662 106.015 131.964 102.784 133.699 104.044M117.432 106.959C120.93 104.524 128.232 99.7617 129.457 100.196M129.457 100.196C130.763 101.127 132 102.207 133.157 103.449C133.344 103.65 133.525 103.848 133.699 104.044" stroke="black" stroke-width="1.0845"/>
</g>
<defs>
<filter id="filter0_d_429_3085" x="-10.7588" y="0.458008" width="189.798" height="171.084" filterUnits="userSpaceOnUse" color-interpolation-filters="sRGB">
<feFlood flood-opacity="0" result="BackgroundImageFix"/>
<feColorMatrix in="SourceAlpha" type="matrix" values="0 0 0 0 0 0 0 0 0 0 0 0 0 0 0 0 0 0 127 0" result="hardAlpha"/>
<feOffset dy="6"/>
<feGaussianBlur stdDeviation="3"/>
<feComposite in2="hardAlpha" operator="out"/>
<feColorMatrix type="matrix" values="0 0 0 0 0 0 0 0 0 0 0 0 0 0 0 0 0 0 0.25 0"/>
<feBlend mode="normal" in2="BackgroundImageFix" result="effect1_dropShadow_429_3085"/>
<feBlend mode="normal" in="SourceGraphic" in2="effect1_dropShadow_429_3085" result="shape"/>
</filter>
</defs>
</svg>
